<svg width="311" height="123" viewBox="0 0 311 123" fill="none" xmlns="http://www.w3.org/2000/svg">
<path d="M54.74 66.7469C45.0591 76.7411 36.2324 90.1619 30.1106 108.151C37.5848 113.006 46.2692 117.646 55.1671 123C63.8515 117.789 72.1799 113.291 79.5118 108.651C73.3901 90.3761 64.4921 76.8125 54.74 66.7469Z" fill="#33358B"/>
<path d="M66.2004 56.7528C81.2201 66.5328 92.6095 78.3831 100.653 88.5914C104.141 82.3093 105.707 74.8851 104.782 65.5334C103.714 55.2536 103.714 46.7586 104.141 39.834C93.6772 42.1184 79.7253 46.83 66.2004 56.7528Z" fill="#E72D30"/>
<path d="M54.74 50.1138C68.6919 43.0464 85.2065 38.0493 104.426 37.4069C105.921 20.7023 110.405 13.9919 110.405 13.9919C110.405 13.9919 103.714 11.993 84.7082 7.06732C64.4209 1.85606 55.1671 0 55.1671 0C55.1671 0 45.9133 1.85606 25.6972 7.06732C6.69123 11.993 0 13.9919 0 13.9919C0 13.9919 4.48455 20.7023 5.9794 37.4069C24.7718 38.1921 41.0016 43.1178 54.74 50.1138Z" fill="#E72D30"/>
<path d="M6.12166 40.0482C6.54876 46.9727 6.47758 55.3964 5.48101 65.5334C4.55563 74.5995 6.05048 81.8096 9.25373 87.9489C17.2974 77.8833 28.5444 66.3186 43.2082 56.7527C30.1104 47.0441 16.5856 42.3325 6.12166 40.0482Z" fill="#E72D30"/>
<path d="M153.614 49.6854V54.6825H135.248V31.7673H153.186V36.7644H141.655V40.6193H151.834V45.4736H141.655V49.6854H153.614Z" fill="#33358B"/>
<path d="M173.047 32.7667C174.542 33.4806 175.752 34.4086 176.606 35.6936C177.46 36.9785 177.816 38.4777 177.816 40.191C177.816 41.9042 177.389 43.4034 176.606 44.6883C175.752 45.9733 174.613 46.9013 173.047 47.6152C171.552 48.3291 169.701 48.6146 167.637 48.6146H163.651V54.6111H157.173V31.7673H167.637C169.701 31.7673 171.481 32.0528 173.047 32.7667ZM170.271 42.6895C170.911 42.1184 171.267 41.2618 171.267 40.191C171.267 39.1201 170.911 38.2635 170.271 37.6924C169.63 37.1213 168.562 36.8358 167.281 36.8358H163.722V43.5461H167.281C168.562 43.5461 169.559 43.2606 170.271 42.6895Z" fill="#33358B"/>
<path d="M180.948 31.7673H187.426V54.6825H180.948V31.7673Z" fill="#33358B"/>
<path d="M196.964 53.6117C195.042 52.6123 193.547 51.1846 192.48 49.3999C191.412 47.6152 190.843 45.545 190.843 43.2606C190.843 40.9762 191.412 38.906 192.48 37.1213C193.547 35.3366 195.042 33.9089 196.964 32.9095C198.886 31.91 201.022 31.4103 203.442 31.4103C205.506 31.4103 207.428 31.7673 209.065 32.5525C210.774 33.2664 212.126 34.3372 213.265 35.765L209.137 39.4771C207.642 37.6924 205.862 36.7644 203.727 36.7644C202.517 36.7644 201.378 37.0499 200.381 37.5496C199.385 38.0493 198.673 38.8346 198.103 39.834C197.534 40.8334 197.32 41.9756 197.32 43.2606C197.32 44.5456 197.605 45.6878 198.103 46.6872C198.602 47.6866 199.385 48.4719 200.381 48.9716C201.378 49.5427 202.445 49.7568 203.727 49.7568C205.862 49.7568 207.642 48.8288 209.137 47.0441L213.265 50.7562C212.126 52.184 210.774 53.2548 209.065 53.9687C207.357 54.6825 205.506 55.1109 203.442 55.1109C201.022 55.1109 198.886 54.6111 196.964 53.6117Z" fill="#33358B"/>
<path d="M150.553 82.9518H140.872L139.092 87.3779H132.472L142.58 64.4626H148.916L159.024 87.3779H152.332L150.553 82.9518ZM148.702 78.1689L145.783 70.816L142.865 78.1689H148.702Z" fill="#33358B"/>
<path d="M165.572 86.307C163.651 85.3076 162.156 83.8799 161.088 82.0952C160.02 80.3105 159.451 78.2403 159.451 75.9559C159.451 73.6715 160.02 71.6013 161.088 69.8166C162.156 68.0319 163.651 66.6042 165.572 65.6048C167.494 64.6054 169.63 64.1057 172.05 64.1057C174.114 64.1057 176.036 64.4626 177.674 65.2478C179.382 65.9617 180.734 67.0325 181.873 68.4603L177.745 72.1724C176.25 70.3877 174.47 69.4597 172.335 69.4597C171.125 69.4597 169.986 69.7452 168.989 70.2449C167.993 70.7447 167.281 71.5299 166.711 72.5293C166.142 73.5287 165.928 74.6709 165.928 75.9559C165.928 77.2409 166.213 78.3831 166.711 79.3825C167.21 80.3819 167.993 81.1672 168.989 81.6669C169.986 82.238 171.054 82.4521 172.335 82.4521C174.47 82.4521 176.25 81.5241 177.745 79.7394L181.873 83.4516C180.734 84.8793 179.382 85.9501 177.674 86.664C175.965 87.3779 174.114 87.8062 172.05 87.8062C169.559 87.8776 167.423 87.3779 165.572 86.307Z" fill="#33358B"/>
<path d="M199.598 82.9518H189.917L188.138 87.3779H181.518L191.626 64.4626H197.961L208.069 87.3779H201.378L199.598 82.9518ZM197.747 78.1689L194.829 70.816L191.91 78.1689H197.747Z" fill="#33358B"/>
<path d="M209.991 64.4626H220.811C223.302 64.4626 225.509 64.9623 227.502 65.8903C229.424 66.8184 230.919 68.1747 231.986 69.888C233.054 71.6013 233.552 73.6001 233.552 75.9559C233.552 78.3117 233.054 80.3105 231.986 82.0238C230.919 83.7371 229.424 85.0935 227.502 86.0215C225.58 86.9495 223.373 87.4492 220.811 87.4492H209.991V64.4626ZM220.526 82.238C222.519 82.238 224.085 81.6669 225.224 80.5961C226.363 79.5253 227.004 77.9547 227.004 75.9559C227.004 73.9571 226.434 72.4579 225.224 71.3157C224.014 70.1736 222.448 69.6738 220.526 69.6738H216.397V82.238H220.526Z" fill="#33358B"/>
<path d="M255.264 82.3808V87.3779H236.898V64.4626H254.836V69.4597H243.305V73.3146H253.484V78.1689H243.305V82.3808H255.264Z" fill="#33358B"/>
<path d="M279.466 87.3778L279.395 75.242L273.486 85.1648H270.639L264.802 75.599V87.4492H258.823V64.4626H264.161L272.205 77.6692L280.035 64.4626H285.374L285.445 87.3778H279.466Z" fill="#33358B"/>
<path d="M302.244 79.1683V87.3779H295.767V79.0969L287.082 64.4626H293.916L299.326 73.6001L304.736 64.4626H311L302.244 79.1683Z" fill="#33358B"/>
</svg>
